<svg xmlns="http://www.w3.org/2000/svg" xmlns:xlink="http://www.w3.org/1999/xlink" width="840" height="494.2"><rect width="840" height="494.2" rx="5" ry="5" class="a"/><svg y="0%" x="0%"><circle cx="20" cy="20" r="6" fill="#ff5f58"/><circle cx="40" cy="20" r="6" fill="#ffbd2e"/><circle cx="60" cy="20" r="6" fill="#18c132"/></svg><svg height="434.2" viewBox="0 0 80 43.42" width="800" x="15" xmlns="http://www.w3.org/2000/svg" xmlns:xlink="http://www.w3.org/1999/xlink" y="50"><style>@keyframes t{0%{transform:translateX(0)}6.6%{transform:translateX(-80px)}6.7%{transform:translateX(-160px)}6.8%{transform:translateX(-640px)}7.3%{transform:translateX(-720px)}15.8%{transform:translateX(-800px)}18.4%{transform:translateX(-880px)}19.3%{transform:translateX(-960px)}19.7%{transform:translateX(-1040px)}24%{transform:translateX(-1120px)}31%{transform:translateX(-1360px)}31.1%{transform:translateX(-1520px)}31.2%{transform:translateX(-1600px)}44.3%{transform:translateX(-1680px)}56.3%{transform:translateX(-1840px)}88.6%{transform:translateX(-1920px)}99.5%{transform:translateX(-2000px)}99.6%{transform:translateX(-2080px)}99.9%{transform:translateX(-2240px)}to{transform:translateX(-2560px)}}.a{fill:#282d35}.f,.g,.h,.i{fill:#71bef2;white-space:pre}.g,.h,.i{font-weight:700}.h,.i{fill:#a8cc8c}.i{fill:#b9bfca}.j,.m,.n,.o,.p,.q{fill:#a8cc8c;white-space:pre}.m,.n,.o,.p,.q{fill:#dbab79}.n,.o,.p,.q{fill:#b9c0cb}.o,.p,.q{fill:#e88388}.p,.q{fill:#73bef3}.q{fill:#6f7783}</style><g font-family="Monaco,Consolas,Menlo,'Bitstream Vera Sans Mono','Powerline Symbols',monospace" font-size="1.67"><defs><symbol id="1"><text y="1.67" class="f">~/P/b/lua-series</text></symbol><symbol id="2"><text y="1.67" class="f">~/P/b/lua-series</text><text x="17.034" y="1.67" class="g">▶</text></symbol><symbol id="3"><text y="1.67" class="f">~/P/b/lua-series</text><text x="17.034" y="1.67" class="g">▶</text><text x="71.142" y="1.67" class="h">part-4</text><text x="78.156" y="1.67" class="i">◼</text></symbol><symbol id="4"><text y="1.67" class="f">~/P/b/lua-series</text><text x="17.034" y="1.67" class="g">▶</text><text x="19.038" y="1.67" class="j">lua</text><text x="71.142" y="1.67" class="h">part-4</text><text x="78.156" y="1.67" class="i">◼</text></symbol><symbol id="5"><text y="1.67" class="f">~/P/b/lua-series</text><text x="17.034" y="1.67" class="g">▶</text><text x="19.038" y="1.67" class="j">lua</text><path fill="#d290e4" d="M22.044 0h1v2.171h-1z"/><text x="22.044" y="1.67" class="i"></text><text x="23.046" y="1.67" style="white-space:pre" fill="#b9c0cb" text-decoration="underline">src/errors/debugger-in-place.lua</text><text x="71.142" y="1.67" class="h">part-4</text><text x="78.156" y="1.67" class="i">◼</text></symbol><symbol id="6"><text y="1.67" class="m">debugger.lua:</text><text x="14.028" y="1.67" class="n">Loaded</text><text x="21.042" y="1.67" class="n">for</text><text x="25.05" y="1.67" class="n">Lua</text><text x="29.058" y="1.67" class="n">5.4</text></symbol><symbol id="7"><text y="1.67" class="o">ERROR:</text><text x="7.014" y="1.67" class="n">&quot;Function</text><text x="17.034" y="1.67" class="n">&apos;greet&apos;</text><text x="25.05" y="1.67" class="n">expects</text><text x="33.066" y="1.67" class="n">a</text><text x="35.07" y="1.67" class="n">string</text><text x="42.084" y="1.67" class="n">as</text><text x="45.09" y="1.67" class="n">argument.&quot;</text></symbol><symbol id="8"><text y="1.67" class="m">break</text><text x="6.012" y="1.67" class="m">via</text><text x="10.02" y="1.67" class="o">dbg.error()</text><text x="22.044" y="1.67" class="j">=&gt;</text><text x="25.05" y="1.67" class="p">src/errors/debugger-in-place.lua</text><text x="57.114" y="1.67" class="n">:</text><text x="58.116" y="1.67" class="m">7</text><text x="60.12" y="1.67" class="n">in</text><text x="63.126" y="1.67" class="n">chunk</text><text x="69.138" y="1.67" class="n">at</text><text x="72.144" y="1.67" class="p">src/erro</text></symbol><symbol id="9"><text y="1.67" class="p">rs/debugger-in-place.lua</text><text x="24.048" y="1.67" class="n">:</text><text x="25.05" y="1.67" class="m">5</text></symbol><symbol id="10"><text y="1.67" class="o">debugger.lua&gt;</text></symbol><symbol id="11"><text y="1.67" class="o">debugger.lua&gt;</text><text x="14.028" y="1.67" class="n">t</text></symbol><symbol id="12"><text y="1.67" class="n">Inspecting</text><text x="11.022" y="1.67" class="n">frame</text><text x="17.034" y="1.67" class="n">0</text></symbol><symbol id="13"><text x="3.006" y="1.67" class="q">0</text><text x="5.01" y="1.67" class="j">=&gt;</text><text x="8.016" y="1.67" class="p">src/errors/debugger-in-place.lua</text><text x="40.08" y="1.67" class="n">:</text><text x="41.082" y="1.67" class="m">7</text><text x="43.086" y="1.67" class="n">in</text><text x="46.092" y="1.67" class="n">chunk</text><text x="52.104" y="1.67" class="n">at</text><text x="55.11" y="1.67" class="p">src/errors/debugger-in-pl</text></symbol><symbol id="14"><text y="1.67" class="p">ace.lua</text><text x="7.014" y="1.67" class="n">:</text><text x="8.016" y="1.67" class="m">5</text></symbol><symbol id="15"><text x="3.006" y="1.67" class="q">1</text><text x="8.016" y="1.67" class="p">[C]</text><text x="11.022" y="1.67" class="n">:</text><text x="12.024" y="1.67" class="m">-1</text><text x="15.03" y="1.67" class="n">in</text><text x="18.036" y="1.67" class="n">global</text><text x="25.05" y="1.67" class="n">&apos;</text><text x="26.052" y="1.67" class="p">xpcall</text><text x="32.064" y="1.67" class="n">&apos;</text></symbol><symbol id="16"><text x="3.006" y="1.67" class="q">2</text><text x="8.016" y="1.67" class="p">src/debugger.lua</text><text x="24.048" y="1.67" class="n">:</text><text x="25.05" y="1.67" class="m">525</text><text x="29.058" y="1.67" class="n">in</text><text x="32.064" y="1.67" class="n">local</text><text x="38.076" y="1.67" class="n">&apos;</text><text x="39.078" y="1.67" class="p">pcall</text><text x="44.088" y="1.67" class="n">&apos;</text></symbol><symbol id="17"><text x="3.006" y="1.67" class="q">3</text><text x="8.016" y="1.67" class="p">src/errors/debugger-in-place.lua</text><text x="40.08" y="1.67" class="n">:</text><text x="41.082" y="1.67" class="m">12</text><text x="44.088" y="1.67" class="n">in</text><text x="47.094" y="1.67" class="n">chunk</text><text x="53.106" y="1.67" class="n">at</text><text x="56.112" y="1.67" class="p">src/errors/debugger-in-p</text></symbol><symbol id="18"><text y="1.67" class="p">lace.lua</text><text x="8.016" y="1.67" class="n">:</text><text x="9.018" y="1.67" class="m">0</text></symbol><symbol id="19"><text x="3.006" y="1.67" class="q">4</text><text x="8.016" y="1.67" class="p">[C]</text><text x="11.022" y="1.67" class="n">:</text><text x="12.024" y="1.67" class="m">-1</text><text x="15.03" y="1.67" class="n">in</text><text x="18.036" y="1.67" class="n">chunk</text><text x="24.048" y="1.67" class="n">at</text><text x="27.054" y="1.67" class="p">[C]</text><text x="30.06" y="1.67" class="n">:</text><text x="31.062" y="1.67" class="m">-1</text></symbol><symbol id="20"><text y="1.67" class="o">debugger.lua&gt;</text><text x="14.028" y="1.67" class="n">q</text></symbol><symbol id="a"><path fill="transparent" d="M0 0h80v20H0z"/></symbol><symbol id="b"><path fill="#6f7683" d="M0 0h1.102v2.171H0z"/></symbol></defs><path class="a" d="M0 0h80v43.42H0z"/><g style="animation-duration:8.996534s;animation-iteration-count:infinite;animation-name:t;animation-timing-function:steps(1,end)"><svg width="2640"><svg><use xlink:href="#a"/><use xlink:href="#b" x="-.004"/></svg><svg x="80"><use xlink:href="#a"/><use xlink:href="#b" x="-.004"/></svg><svg x="160"><use xlink:href="#a"/><use xlink:href="#b" x="-.004"/></svg><svg x="240"><use xlink:href="#a"/><use xlink:href="#b" x="-.004"/></svg><svg x="320"><use xlink:href="#a"/><use xlink:href="#b" x="-.004"/></svg><svg x="400"><use xlink:href="#a"/><use xlink:href="#b" x="16.996"/><use xlink:href="#1"/></svg><svg x="480"><use xlink:href="#a"/><use xlink:href="#b" x="16.996"/><use xlink:href="#1"/></svg><svg x="560"><use xlink:href="#a"/><use xlink:href="#b" x="18.996"/><use xlink:href="#2"/></svg><svg x="640"><use xlink:href="#a"/><use xlink:href="#b" x="18.996"/><use xlink:href="#2"/></svg><svg x="720"><use xlink:href="#a"/><use xlink:href="#b" x="18.996"/><use xlink:href="#3"/></svg><svg x="800"><use xlink:href="#a"/><use xlink:href="#b" x="19.996"/><text y="1.67" class="f">~/P/b/lua-series</text><text x="17.034" y="1.67" class="g">▶</text><text x="19.038" y="1.67" class="j">l</text><text x="71.142" y="1.67" class="h">part-4</text><text x="78.156" y="1.67" class="i">◼</text></svg><svg x="880"><use xlink:href="#a"/><use xlink:href="#b" x="20.996"/><text y="1.67" class="f">~/P/b/lua-series</text><text x="17.034" y="1.67" class="g">▶</text><text x="19.038" y="1.67" class="j">lu</text><text x="71.142" y="1.67" class="h">part-4</text><text x="78.156" y="1.67" class="i">◼</text></svg><svg x="960"><use xlink:href="#a"/><use xlink:href="#b" x="21.996"/><use xlink:href="#4"/></svg><svg x="1040"><use xlink:href="#a"/><use xlink:href="#b" x="22.996"/><use xlink:href="#4"/></svg><svg x="1120"><use xlink:href="#a"/><use xlink:href="#b" x="54.996"/><use xlink:href="#5"/></svg><svg x="1200"><use xlink:href="#a"/><use xlink:href="#b" x="54.996"/><use xlink:href="#5"/></svg><svg x="1280"><use xlink:href="#a"/><use xlink:href="#b" x="18.996"/><use xlink:href="#2"/></svg><svg x="1360"><use xlink:href="#a"/><use xlink:href="#b" x="54.996"/><use xlink:href="#5"/></svg><svg x="1440"><use xlink:href="#a"/><use xlink:href="#b" x="-.004" y="2.146"/><use xlink:href="#5"/></svg><svg x="1520"><use xlink:href="#a"/><use xlink:href="#b" x="-.004" y="2.146"/><use xlink:href="#5"/></svg><svg x="1600"><use xlink:href="#a"/><use xlink:href="#b" x="13.996" y="10.83"/><use xlink:href="#5"/><use xlink:href="#6" y="2.171"/><use xlink:href="#7" y="4.342"/><use xlink:href="#8" y="6.513"/><use xlink:href="#9" y="8.684"/><use xlink:href="#10" y="10.855"/></svg><svg x="1680"><use xlink:href="#a"/><use xlink:href="#b" x="14.996" y="10.83"/><use xlink:href="#5"/><use xlink:href="#6" y="2.171"/><use xlink:href="#7" y="4.342"/><use xlink:href="#8" y="6.513"/><use xlink:href="#9" y="8.684"/><use xlink:href="#11" y="10.855"/></svg><svg x="1760"><use xlink:href="#a"/><use xlink:href="#b" x="-.004" y="13.001"/><use xlink:href="#5"/><use xlink:href="#6" y="2.171"/><use xlink:href="#7" y="4.342"/><use xlink:href="#8" y="6.513"/><use xlink:href="#9" y="8.684"/><use xlink:href="#11" y="10.855"/></svg><svg x="1840"><use xlink:href="#a"/><use xlink:href="#b" x="13.996" y="30.369"/><use xlink:href="#5"/><use xlink:href="#6" y="2.171"/><use xlink:href="#7" y="4.342"/><use xlink:href="#8" y="6.513"/><use xlink:href="#9" y="8.684"/><use xlink:href="#11" y="10.855"/><use xlink:href="#12" y="13.026"/><use xlink:href="#13" y="15.197"/><use xlink:href="#14" y="17.368"/><use xlink:href="#15" y="19.539"/><use xlink:href="#16" y="21.71"/><use xlink:href="#17" y="23.881"/><use xlink:href="#18" y="26.052"/><use xlink:href="#19" y="28.223"/><use xlink:href="#10" y="30.394"/></svg><svg x="1920"><use xlink:href="#a"/><use xlink:href="#b" x="14.996" y="30.369"/><use xlink:href="#5"/><use xlink:href="#6" y="2.171"/><use xlink:href="#7" y="4.342"/><use xlink:href="#8" y="6.513"/><use xlink:href="#9" y="8.684"/><use xlink:href="#11" y="10.855"/><use xlink:href="#12" y="13.026"/><use xlink:href="#13" y="15.197"/><use xlink:href="#14" y="17.368"/><use xlink:href="#15" y="19.539"/><use xlink:href="#16" y="21.71"/><use xlink:href="#17" y="23.881"/><use xlink:href="#18" y="26.052"/><use xlink:href="#19" y="28.223"/><use xlink:href="#20" y="30.394"/></svg><svg x="2000"><use xlink:href="#a"/><use xlink:href="#b" x="-.004" y="32.54"/><use xlink:href="#5"/><use xlink:href="#6" y="2.171"/><use xlink:href="#7" y="4.342"/><use xlink:href="#8" y="6.513"/><use xlink:href="#9" y="8.684"/><use xlink:href="#11" y="10.855"/><use xlink:href="#12" y="13.026"/><use xlink:href="#13" y="15.197"/><use xlink:href="#14" y="17.368"/><use xlink:href="#15" y="19.539"/><use xlink:href="#16" y="21.71"/><use xlink:href="#17" y="23.881"/><use xlink:href="#18" y="26.052"/><use xlink:href="#19" y="28.223"/><use xlink:href="#20" y="30.394"/></svg><svg x="2080"><use xlink:href="#a"/><use xlink:href="#b" x="-.004" y="32.54"/><use xlink:href="#5"/><use xlink:href="#6" y="2.171"/><use xlink:href="#7" y="4.342"/><use xlink:href="#8" y="6.513"/><use xlink:href="#9" y="8.684"/><use xlink:href="#11" y="10.855"/><use xlink:href="#12" y="13.026"/><use xlink:href="#13" y="15.197"/><use xlink:href="#14" y="17.368"/><use xlink:href="#15" y="19.539"/><use xlink:href="#16" y="21.71"/><use xlink:href="#17" y="23.881"/><use xlink:href="#18" y="26.052"/><use xlink:href="#19" y="28.223"/><use xlink:href="#20" y="30.394"/></svg><svg x="2160"><use xlink:href="#a"/><use xlink:href="#b" x="-.004" y="32.54"/><use xlink:href="#5"/><use xlink:href="#6" y="2.171"/><use xlink:href="#7" y="4.342"/><use xlink:href="#8" y="6.513"/><use xlink:href="#9" y="8.684"/><use xlink:href="#11" y="10.855"/><use xlink:href="#12" y="13.026"/><use xlink:href="#13" y="15.197"/><use xlink:href="#14" y="17.368"/><use xlink:href="#15" y="19.539"/><use xlink:href="#16" y="21.71"/><use xlink:href="#17" y="23.881"/><use xlink:href="#18" y="26.052"/><use xlink:href="#19" y="28.223"/><use xlink:href="#20" y="30.394"/></svg><svg x="2240"><use xlink:href="#a"/><use xlink:href="#b" x="-.004" y="32.54"/><use xlink:href="#5"/><use xlink:href="#6" y="2.171"/><use xlink:href="#7" y="4.342"/><use xlink:href="#8" y="6.513"/><use xlink:href="#9" y="8.684"/><use xlink:href="#11" y="10.855"/><use xlink:href="#12" y="13.026"/><use xlink:href="#13" y="15.197"/><use xlink:href="#14" y="17.368"/><use xlink:href="#15" y="19.539"/><use xlink:href="#16" y="21.71"/><use xlink:href="#17" y="23.881"/><use xlink:href="#18" y="26.052"/><use xlink:href="#19" y="28.223"/><use xlink:href="#20" y="30.394"/></svg><svg x="2320"><use xlink:href="#a"/><use xlink:href="#b" x="18.996" y="32.54"/><use xlink:href="#5"/><use xlink:href="#6" y="2.171"/><use xlink:href="#7" y="4.342"/><use xlink:href="#8" y="6.513"/><use xlink:href="#9" y="8.684"/><use xlink:href="#11" y="10.855"/><use xlink:href="#12" y="13.026"/><use xlink:href="#13" y="15.197"/><use xlink:href="#14" y="17.368"/><use xlink:href="#15" y="19.539"/><use xlink:href="#16" y="21.71"/><use xlink:href="#17" y="23.881"/><use xlink:href="#18" y="26.052"/><use xlink:href="#19" y="28.223"/><use xlink:href="#20" y="30.394"/><use xlink:href="#3" y="32.565"/></svg><svg x="2400"><use xlink:href="#a"/><use xlink:href="#b" x="18.996" y="32.54"/><use xlink:href="#5"/><use xlink:href="#6" y="2.171"/><use xlink:href="#7" y="4.342"/><use xlink:href="#8" y="6.513"/><use xlink:href="#9" y="8.684"/><use xlink:href="#11" y="10.855"/><use xlink:href="#12" y="13.026"/><use xlink:href="#13" y="15.197"/><use xlink:href="#14" y="17.368"/><use xlink:href="#15" y="19.539"/><use xlink:href="#16" y="21.71"/><use xlink:href="#17" y="23.881"/><use xlink:href="#18" y="26.052"/><use xlink:href="#19" y="28.223"/><use xlink:href="#20" y="30.394"/><use xlink:href="#3" y="32.565"/></svg><svg x="2480"><use xlink:href="#a"/><use xlink:href="#b" x="18.996" y="32.54"/><use xlink:href="#5"/><use xlink:href="#6" y="2.171"/><use xlink:href="#7" y="4.342"/><use xlink:href="#8" y="6.513"/><use xlink:href="#9" y="8.684"/><use xlink:href="#11" y="10.855"/><use xlink:href="#12" y="13.026"/><use xlink:href="#13" y="15.197"/><use xlink:href="#14" y="17.368"/><use xlink:href="#15" y="19.539"/><use xlink:href="#16" y="21.71"/><use xlink:href="#17" y="23.881"/><use xlink:href="#18" y="26.052"/><use xlink:href="#19" y="28.223"/><use xlink:href="#20" y="30.394"/><use xlink:href="#3" y="32.565"/></svg><svg x="2560"><use xlink:href="#a"/><use xlink:href="#b" x="18.996" y="32.54"/><use xlink:href="#5"/><use xlink:href="#6" y="2.171"/><use xlink:href="#7" y="4.342"/><use xlink:href="#8" y="6.513"/><use xlink:href="#9" y="8.684"/><use xlink:href="#11" y="10.855"/><use xlink:href="#12" y="13.026"/><use xlink:href="#13" y="15.197"/><use xlink:href="#14" y="17.368"/><use xlink:href="#15" y="19.539"/><use xlink:href="#16" y="21.71"/><use xlink:href="#17" y="23.881"/><use xlink:href="#18" y="26.052"/><use xlink:href="#19" y="28.223"/><use xlink:href="#20" y="30.394"/><use xlink:href="#3" y="32.565"/></svg></svg></g></g></svg></svg>